<?xml version="1.0" encoding="utf-8"?>
<!-- Generator: Adobe Illustrator 16.0.0, SVG Export Plug-In . SVG Version: 6.00 Build 0)  -->
<!DOCTYPE svg PUBLIC "-//W3C//DTD SVG 1.1//EN" "http://www.w3.org/Graphics/SVG/1.1/DTD/svg11.dtd">
<svg version="1.1" id="Layer_1" xmlns="http://www.w3.org/2000/svg" xmlns:xlink="http://www.w3.org/1999/xlink" x="0px" y="0px"
	 width="181px" height="56.842px" viewBox="0 0 181 56.842" enable-background="new 0 0 181 56.842" xml:space="preserve">
<g>
	<defs>
		<rect id="SVGID_1_" width="181" height="56.842"/>
	</defs>
	<clipPath id="SVGID_2_">
		<use xlink:href="#SVGID_1_"  overflow="visible"/>
	</clipPath>
	<path clip-path="url(#SVGID_2_)" fill="#FFFFFF" d="M104.54,49.498c-0.374-0.674-2.541,0.966-5.029,1.525
		c-8.517,1.916-11.593,1.781-15.298,2.29c-3.705,0.508-6.14,1.779-6.14,3.051c0,0.51,0.529,0.611,1.058,0.307
		c0.53-0.307,1.588-1.832,4.5-2.086c2.911-0.255,9.44-0.853,13.393-1.476C104.117,51.99,104.963,50.261,104.54,49.498
		 M104.291,45.275c0.28-0.628-0.28-1.166-0.84-0.673c-0.287,0.253-0.482,0.551-0.792,0.851c-0.312,0.302-0.641,0.588-0.991,0.859
		c-0.35,0.272-0.709,0.513-1.079,0.722c-0.368,0.209-0.719,0.349-1.052,0.416c-0.106,0.021-0.205,0.03-0.296,0.026
		c-0.092-0.003-0.179-0.024-0.262-0.063c-0.084-0.039-0.165-0.101-0.246-0.185c-0.08-0.084-0.162-0.193-0.246-0.326
		c0.482-0.232,0.931-0.511,1.345-0.835c0.413-0.324,0.771-0.67,1.07-1.038c0.299-0.368,0.534-0.741,0.704-1.122
		c0.169-0.38,0.253-0.742,0.253-1.089c0-0.316-0.056-0.593-0.166-0.827c-0.111-0.233-0.267-0.421-0.462-0.562
		c-0.198-0.141-0.43-0.234-0.695-0.28c-0.267-0.046-0.556-0.037-0.867,0.026c-0.382,0.078-0.73,0.218-1.044,0.419
		c-0.313,0.2-0.597,0.441-0.849,0.725c-0.253,0.283-0.475,0.596-0.662,0.938c-0.189,0.342-0.346,0.692-0.471,1.053
		c-0.124,0.36-0.219,0.721-0.279,1.081c-0.062,0.361-0.091,0.698-0.091,1.01c0,0.073,0.004,0.144,0.008,0.214
		c-0.061,0.06-0.112,0.115-0.174,0.176c-0.312,0.301-0.643,0.587-0.991,0.858c-0.351,0.272-0.709,0.514-1.078,0.723
		c-0.37,0.209-0.72,0.348-1.053,0.416c-0.106,0.021-0.204,0.029-0.296,0.026c-0.093-0.004-0.18-0.024-0.263-0.063
		c-0.084-0.039-0.165-0.102-0.246-0.186c-0.079-0.084-0.161-0.191-0.244-0.326c0.481-0.231,0.93-0.511,1.344-0.834
		c0.413-0.324,0.77-0.671,1.069-1.038s0.534-0.741,0.703-1.122s0.254-0.742,0.254-1.09c0-0.316-0.055-0.593-0.166-0.825
		c-0.111-0.234-0.265-0.422-0.462-0.563c-0.196-0.14-0.429-0.234-0.694-0.28c-0.268-0.046-0.557-0.037-0.866,0.026
		c-0.383,0.078-0.732,0.218-1.045,0.419c-0.314,0.2-0.597,0.442-0.85,0.725c-0.253,0.283-0.473,0.596-0.661,0.938
		c-0.189,0.343-0.347,0.693-0.472,1.053c-0.117,0.339-0.204,0.678-0.265,1.018c-0.065,0.044-0.128,0.089-0.197,0.131
		c-0.266,0.166-0.524,0.274-0.774,0.326c-0.089,0.018-0.173,0.018-0.254,0.002c-0.08-0.018-0.153-0.061-0.216-0.127
		c-0.064-0.068-0.116-0.165-0.154-0.291c-0.039-0.126-0.059-0.289-0.059-0.49c0-0.117,0.014-0.267,0.042-0.447
		c0.028-0.182,0.058-0.369,0.092-0.562c0.033-0.194,0.063-0.379,0.091-0.555c0.028-0.176,0.042-0.312,0.042-0.405
		c0-0.123-0.022-0.229-0.067-0.317c-0.044-0.088-0.104-0.158-0.179-0.21c-0.075-0.052-0.162-0.085-0.262-0.102
		c-0.1-0.016-0.203-0.013-0.308,0.009c-0.305,0.063-0.574,0.199-0.808,0.412c-0.233,0.212-0.441,0.457-0.624,0.733
		c-0.183,0.277-0.344,0.568-0.483,0.872c-0.138,0.304-0.264,0.579-0.374,0.825l-0.092,0.019c-0.011-0.282-0.017-0.569-0.017-0.861
		V44.88c0-0.173-0.004-0.31-0.012-0.407c-0.009-0.099-0.032-0.171-0.071-0.215c-0.039-0.046-0.099-0.067-0.179-0.065
		c-0.08,0.003-0.193,0.02-0.337,0.049c-0.031,0.007-0.057,0.014-0.086,0.021c-0.008,0.001-0.014,0-0.023,0.002l-4.62,0.944
		c0.066-0.684,0.127-1.272,0.183-1.77c0.056-0.496,0.105-0.92,0.15-1.271c0.044-0.353,0.082-0.641,0.112-0.864
		c0.031-0.223,0.057-0.407,0.079-0.551s0.039-0.257,0.05-0.336c0.011-0.08,0.017-0.151,0.017-0.214
		c0.239-0.082,0.469-0.156,0.691-0.224c0.194-0.062,0.395-0.123,0.603-0.182c0.209-0.06,0.388-0.104,0.538-0.136
		c0.504-0.103,1.003-0.196,1.494-0.283c0.491-0.086,0.967-0.161,1.427-0.226c0.461-0.063,0.902-0.115,1.324-0.152
		c0.422-0.039,0.814-0.065,1.174-0.077c0.028,0,0.054-0.001,0.079-0.003c0.025-0.003,0.049-0.006,0.071-0.012
		c0.139-0.027,0.259-0.085,0.362-0.17s0.185-0.184,0.246-0.297s0.107-0.23,0.137-0.354c0.03-0.123,0.046-0.238,0.046-0.345
		c0-0.161-0.054-0.304-0.162-0.426c-0.109-0.123-0.304-0.194-0.587-0.215c-0.983,0.062-1.936,0.158-2.86,0.291
		c-0.924,0.133-1.808,0.286-2.652,0.459c-1.271,0.259-2.432,0.586-3.484,0.979c-1.052,0.393-1.953,0.854-2.705,1.389
		c-0.753,0.532-1.337,1.138-1.753,1.815c-0.416,0.68-0.624,1.435-0.624,2.266c0,0.083,0.009,0.163,0.029,0.24
		c0.019,0.076,0.072,0.139,0.158,0.185c0.086,0.047,0.219,0.07,0.4,0.069c0.18,0,0.431-0.034,0.753-0.1
		c0.239-0.049,0.42-0.116,0.545-0.203c0.125-0.088,0.215-0.175,0.271-0.265c0.055-0.089,0.086-0.168,0.092-0.236
		c0.005-0.067,0.008-0.107,0.008-0.118c0-0.229,0.055-0.475,0.166-0.736c0.111-0.262,0.283-0.529,0.516-0.799
		c0.234-0.271,0.528-0.54,0.883-0.809c0.355-0.268,0.774-0.521,1.257-0.759c-0.067,0.371-0.125,0.72-0.175,1.048
		c-0.05,0.328-0.103,0.678-0.158,1.048c-0.056,0.371-0.122,0.785-0.2,1.241c-0.078,0.456-0.183,0.996-0.316,1.62
		c-0.117,0.04-0.244,0.089-0.383,0.146c-0.139,0.056-0.299,0.12-0.479,0.193c-0.18,0.073-0.387,0.158-0.62,0.256
		c-0.233,0.099-0.505,0.212-0.816,0.343c-0.116,0.063-0.2,0.142-0.25,0.234c-0.05,0.094-0.075,0.188-0.075,0.283
		c0,0.134,0.045,0.237,0.134,0.307c0.088,0.072,0.197,0.121,0.324,0.147c0.128,0.027,0.261,0.038,0.4,0.032
		c0.139-0.006,0.255-0.02,0.349-0.038l1.025-0.21c-0.089,0.459-0.186,0.92-0.292,1.381c-0.105,0.462-0.219,0.908-0.341,1.337
		s-0.253,0.832-0.392,1.209c-0.138,0.376-0.284,0.71-0.436,1c-0.153,0.29-0.316,0.528-0.488,0.71
		c-0.171,0.183-0.349,0.293-0.532,0.331c-0.234,0.047-0.464,0.063-0.691,0.049c-0.228-0.015-0.45-0.038-0.666-0.069
		c-0.217-0.03-0.426-0.056-0.629-0.075c-0.203-0.021-0.395-0.013-0.579,0.025c-0.16,0.033-0.298,0.108-0.411,0.227
		c-0.114,0.118-0.209,0.249-0.284,0.393c-0.075,0.144-0.13,0.287-0.166,0.431c-0.036,0.145-0.054,0.258-0.054,0.342
		c0,0.162,0.047,0.296,0.141,0.401c0.094,0.106,0.217,0.191,0.367,0.255c0.149,0.064,0.32,0.109,0.512,0.135
		c0.191,0.024,0.384,0.037,0.578,0.037c0.194-0.003,0.38-0.012,0.558-0.031c0.177-0.021,0.33-0.042,0.458-0.068
		c0.61-0.125,1.151-0.323,1.623-0.595c0.472-0.273,0.888-0.604,1.249-0.996c0.361-0.391,0.672-0.836,0.933-1.336
		c0.26-0.499,0.487-1.04,0.678-1.623c0.192-0.582,0.351-1.198,0.479-1.849c0.127-0.65,0.241-1.323,0.341-2.019
		c0.144-0.03,0.359-0.078,0.645-0.144c0.286-0.067,0.602-0.143,0.949-0.225c0.347-0.082,0.707-0.167,1.079-0.258
		c0.371-0.089,0.713-0.171,1.024-0.246c0.054-0.013,0.1-0.023,0.152-0.037c-0.043,0.189-0.085,0.385-0.127,0.593
		c-0.072,0.354-0.14,0.727-0.204,1.115c-0.064,0.39-0.12,0.771-0.167,1.143s-0.085,0.724-0.112,1.056
		c-0.028,0.332-0.042,0.62-0.042,0.866c0,0.222,0.013,0.436,0.038,0.64c0.025,0.204,0.075,0.38,0.15,0.529
		c0.074,0.15,0.181,0.259,0.32,0.328s0.322,0.081,0.55,0.034c0.1-0.021,0.191-0.058,0.274-0.111
		c0.084-0.053,0.161-0.131,0.234-0.235c0.071-0.104,0.142-0.233,0.212-0.391c0.069-0.156,0.143-0.352,0.22-0.584l1.491-4.478
		l0.133-0.026c0.044,0.342,0.102,0.677,0.175,1.005c0.072,0.328,0.183,0.615,0.333,0.86s0.352,0.427,0.607,0.545
		c0.255,0.117,0.591,0.134,1.008,0.049c0.233-0.047,0.462-0.129,0.687-0.244c0.177-0.092,0.344-0.2,0.511-0.309
		c0.032,0.182,0.073,0.358,0.13,0.528c0.13,0.395,0.326,0.726,0.587,0.992c0.26,0.267,0.587,0.456,0.979,0.565
		c0.391,0.109,0.848,0.11,1.369,0.005c0.333-0.068,0.661-0.173,0.986-0.314s0.639-0.307,0.941-0.494
		c0.302-0.187,0.591-0.389,0.865-0.606s0.531-0.436,0.77-0.651c0.104-0.093,0.198-0.197,0.297-0.294
		c0.1,0.167,0.214,0.317,0.345,0.452c0.262,0.267,0.588,0.455,0.979,0.564c0.391,0.11,0.847,0.111,1.369,0.006
		c0.333-0.068,0.662-0.174,0.986-0.315s0.639-0.306,0.94-0.493c0.303-0.187,0.592-0.39,0.866-0.607s0.532-0.435,0.77-0.65
		C103.516,46.682,103.843,46.278,104.291,45.275 M91.744,46.885c0-0.123,0.006-0.271,0.017-0.446
		c0.012-0.176,0.034-0.358,0.071-0.551c0.035-0.191,0.088-0.384,0.158-0.579c0.069-0.196,0.161-0.376,0.273-0.541
		c0.114-0.166,0.257-0.31,0.426-0.434s0.373-0.21,0.611-0.26c0.134-0.026,0.246,0.031,0.337,0.175
		c0.093,0.143,0.138,0.34,0.138,0.59c0,0.179-0.069,0.377-0.208,0.595c-0.14,0.218-0.31,0.428-0.513,0.631
		c-0.201,0.203-0.422,0.381-0.656,0.532C92.162,46.748,91.944,46.844,91.744,46.885 M98.296,45.547c0-0.123,0.006-0.272,0.018-0.447
		c0.011-0.175,0.033-0.358,0.069-0.55s0.089-0.384,0.158-0.58c0.07-0.195,0.161-0.375,0.275-0.541
		c0.113-0.165,0.256-0.311,0.425-0.434s0.373-0.21,0.612-0.259c0.133-0.026,0.245,0.031,0.337,0.174s0.137,0.341,0.137,0.591
		c0,0.179-0.069,0.377-0.208,0.595c-0.139,0.217-0.309,0.428-0.512,0.631s-0.422,0.38-0.657,0.531
		C98.713,45.409,98.496,45.506,98.296,45.547"/>
</g>
<polygon fill="#FFFFFF" points="39.131,41.846 39.131,43.035 36.77,43.035 36.77,45.973 39.131,45.973 39.131,47.162 36.77,47.162 
	36.77,50.715 39.131,50.715 39.131,51.903 35.32,51.903 35.32,41.846 "/>
<polygon fill="#FFFFFF" points="41.775,41.846 43.909,48.214 43.938,48.214 43.938,41.846 45.316,41.846 45.316,51.903 
	43.867,51.903 41.732,45.536 41.705,45.536 41.705,51.903 40.325,51.903 40.325,41.846 "/>
<polygon fill="#FFFFFF" points="50.72,41.846 50.72,43.035 48.359,43.035 48.359,45.973 50.72,45.973 50.72,47.162 48.359,47.162 
	48.359,50.715 50.72,50.715 50.72,51.903 46.909,51.903 46.909,41.846 "/>
<g>
	<defs>
		<rect id="SVGID_3_" width="181" height="56.842"/>
	</defs>
	<clipPath id="SVGID_4_">
		<use xlink:href="#SVGID_3_"  overflow="visible"/>
	</clipPath>
	<path clip-path="url(#SVGID_4_)" fill="#FFFFFF" d="M53.451,46.109c1.422,0,2.076-0.424,2.076-1.599
		c0-0.834-0.555-1.476-1.579-1.476h-0.497V46.109z M52,41.846h2.347c1.578,0,2.702,1.08,2.702,2.761
		c0,1.025-0.598,2.173-1.792,2.486l2.119,4.811h-1.664l-1.92-4.604h-0.341v4.604H52V41.846z"/>
	<path clip-path="url(#SVGID_4_)" fill="#FFFFFF" d="M62.068,44.374c-0.128-0.929-0.455-1.476-1.067-1.476
		c-0.753,0-1.251,1.011-1.251,4.194c0,2.036,0.199,3.758,1.251,3.758c0.982,0,1.195-1.394,1.252-3.483h-1.479v-1.258h2.929v1.162
		c0,2.419-0.483,4.837-2.702,4.837c-2.517,0-2.773-2.638-2.773-5.233c0-2.774,0.512-5.234,2.773-5.234
		c1.451,0,2.148,0.916,2.475,2.228L62.068,44.374z"/>
</g>
<polygon fill="#FFFFFF" points="66.092,41.846 67.23,46.041 67.258,46.041 68.339,41.846 69.79,41.846 67.941,47.845 67.941,51.903 
	66.49,51.903 66.49,47.845 64.57,41.846 "/>
<polygon fill="#FFFFFF" points="112.221,41.846 112.221,43.035 109.86,43.035 109.86,45.973 112.221,45.973 112.221,47.162 
	109.86,47.162 109.86,51.903 108.409,51.903 108.409,41.846 "/>
<g>
	<defs>
		<rect id="SVGID_5_" width="181" height="56.842"/>
	</defs>
	<clipPath id="SVGID_6_">
		<use xlink:href="#SVGID_5_"  overflow="visible"/>
	</clipPath>
	<path clip-path="url(#SVGID_6_)" fill="#FFFFFF" d="M114.951,46.109c1.422,0,2.076-0.424,2.076-1.599
		c0-0.834-0.556-1.476-1.579-1.476h-0.497V46.109z M113.5,41.846h2.347c1.578,0,2.702,1.08,2.702,2.761
		c0,1.025-0.598,2.173-1.792,2.486l2.119,4.811h-1.664l-1.92-4.604h-0.341v4.604H113.5V41.846z"/>
	<path clip-path="url(#SVGID_6_)" fill="#FFFFFF" d="M122.501,50.852c1.024,0,1.238-1.723,1.238-4.291
		c0-3.048-0.541-3.662-1.238-3.662c-0.754,0-1.251,1.011-1.251,4.194C121.25,49.129,121.449,50.852,122.501,50.852 M122.501,41.641
		c2.504,0,2.76,2.638,2.76,5.234c0,2.774-0.513,5.233-2.76,5.233c-2.517,0-2.772-2.638-2.772-5.233
		C119.729,44.102,120.24,41.641,122.501,41.641"/>
</g>
<polygon fill="#FFFFFF" points="128.146,41.846 130.252,48.555 130.279,48.555 132.385,41.846 133.949,41.846 133.949,51.903 
	132.569,51.903 132.569,45.208 132.542,45.208 130.82,50.92 129.711,50.92 127.99,45.208 127.962,45.208 127.962,51.903 
	126.583,51.903 126.583,41.846 "/>
<polygon fill="#FFFFFF" points="139.821,43.104 137.972,43.104 137.972,41.847 143.121,41.847 143.121,43.104 141.272,43.104 
	141.272,51.903 139.821,51.903 "/>
<polygon fill="#FFFFFF" points="144.243,41.846 145.693,41.846 145.693,45.973 147.784,45.973 147.784,41.846 149.234,41.846 
	149.234,51.903 147.784,51.903 147.784,47.162 145.693,47.162 145.693,51.903 144.243,51.903 "/>
<polygon fill="#FFFFFF" points="154.639,41.846 154.639,43.035 152.277,43.035 152.277,45.973 154.639,45.973 154.639,47.162 
	152.277,47.162 152.277,50.715 154.639,50.715 154.639,51.903 150.828,51.903 150.828,41.846 "/>
<g>
	<defs>
		<rect id="SVGID_7_" width="181" height="56.842"/>
	</defs>
	<clipPath id="SVGID_8_">
		<use xlink:href="#SVGID_7_"  overflow="visible"/>
	</clipPath>
	<path clip-path="url(#SVGID_8_)" fill="#FFFFFF" d="M162.374,44.292c-0.058-0.752-0.313-1.395-1.052-1.395
		c-0.569,0-0.91,0.492-0.91,1.054c0,0.505,0.227,1.079,0.98,1.789l1.181,1.106c0.995,0.931,1.294,1.695,1.294,2.747
		c0,1.38-0.867,2.514-2.518,2.514c-1.422,0-2.36-0.847-2.53-2.404l1.379-0.423c0.085,0.929,0.44,1.639,1.166,1.639
		c0.526,0,1.053-0.423,1.053-1.229c0-0.547-0.242-1.161-1.024-1.912l-1.138-1.08c-0.938-0.902-1.294-1.681-1.294-2.665
		c0-1.489,1.124-2.392,2.332-2.392c1.437,0,2.347,0.834,2.389,2.2L162.374,44.292z"/>
	<path clip-path="url(#SVGID_8_)" fill="#FFFFFF" d="M170.011,49.416c0,2.063-1.054,2.692-2.475,2.692
		c-1.451,0-2.503-0.629-2.503-2.692v-7.57h1.45v7.557c0,0.629,0.157,1.449,1.053,1.449c0.867,0,1.024-0.82,1.024-1.449v-7.557h1.45
		V49.416z"/>
</g>
<polygon fill="#FFFFFF" points="173.053,41.846 175.186,48.214 175.215,48.214 175.215,41.846 176.594,41.846 176.594,51.903 
	175.144,51.903 173.011,45.536 172.982,45.536 172.982,51.903 171.602,51.903 171.602,41.846 "/>
<g>
	<defs>
		<rect id="SVGID_9_" width="181" height="56.842"/>
	</defs>
	<clipPath id="SVGID_10_">
		<use xlink:href="#SVGID_9_"  overflow="visible"/>
	</clipPath>
	<path clip-path="url(#SVGID_10_)" fill="#FFFFFF" d="M178.997,41.634h0.305c0.264,0,0.519-0.014,0.519-0.326
		c0-0.268-0.232-0.299-0.434-0.299h-0.39V41.634z M178.702,40.767h0.733c0.461,0,0.68,0.184,0.68,0.554
		c0,0.354-0.224,0.501-0.514,0.532l0.558,0.858h-0.316l-0.527-0.835h-0.318v0.835h-0.295V40.767z M179.338,43.162
		c0.76,0,1.367-0.616,1.367-1.422c0-0.804-0.607-1.421-1.367-1.421c-0.765,0-1.367,0.617-1.367,1.421
		C177.971,42.546,178.573,43.162,179.338,43.162 M179.338,40.078c0.902,0,1.661,0.716,1.661,1.662c0,0.948-0.759,1.663-1.661,1.663
		c-0.907,0-1.662-0.715-1.662-1.663C177.676,40.794,178.431,40.078,179.338,40.078"/>
	<path clip-path="url(#SVGID_10_)" fill="#FFFFFF" d="M13.36,17.993l-0.084-0.052l-0.082,0.055c-0.195,0.13-4.79,3.249-4.992,7.455
		c-0.149,3.145,2.201,5.317,4.557,5.599c0.233,0.027,0.468,0.042,0.699,0.042c2.907,0,5.142-2.092,5.315-4.974
		C19.045,21.575,13.593,18.137,13.36,17.993"/>
	<path clip-path="url(#SVGID_10_)" fill="#FFFFFF" d="M0.05,24.828 M3.526,16.45c-1.124,1.323-3.112,4.294-3.476,8.378v0.003
		l-0.001,0.003v0.003v0.004l-0.001,0.004v0.002v0.002v0.004v0.003l-0.001,0.002v0.003v0.004v0.002v0.003l-0.001,0.002v0.003v0.002
		L0.045,24.88v0.003v0.003v0.002c-0.004,0.037-0.007,0.069-0.008,0.108C-0.524,32.892,5.257,38.506,13,38.744
		c7.029,0.423,13.496-4.438,14.128-11.66c0.393-5.02-1.349-8.113-4.842-11.549c-2.975-2.881-9.573-7.584-10.353-8.227
		c-0.622-0.6-0.944-1.771-0.125-2.671c0.545-0.62,1.641-0.888,2.435-0.28l6.099,4.8V4.02l-3.948-2.954
		c-2.746-1.836-6.108-1.163-8.081,0.971C6.25,4.351,5.96,7.99,8.473,10.563c1.371,1.403,2.745,2.454,5.21,4.195
		c3.834,2.612,8.406,6.485,7.849,11.736c-0.402,4.496-4.456,7.522-8.889,7.135c-4.515-0.406-7.638-4.171-7.247-8.646
		c0.343-3.578,3.067-6.588,5.751-8.704l-3.937-3.367C7.209,12.912,5.022,14.691,3.526,16.45"/>
	<path clip-path="url(#SVGID_10_)" fill="#FFFFFF" d="M38.651,29.938c-2.662-1.399-4.168-3.989-4.122-7.028h0.001v-1.323
		l5.737-0.178v1.409c0.036,1.197,0.354,1.761,1.197,2.336c0.861,0.56,2.456,0.957,4.756,0.949c1.652,0.002,2.917-0.238,3.811-0.637
		c0.411-0.138,0.804-0.451,0.946-0.634c0.42-0.438,0.444-1.045-0.126-1.484c-0.324-0.249-0.885-0.442-1.479-0.576
		c-0.537-0.145-2.007-0.46-4.286-0.911c-2.762-0.554-4.644-1.047-5.872-1.626c-1.223-0.577-2.231-1.354-2.929-2.357
		c-0.701-0.999-1.047-2.204-1.042-3.461c-0.036-2.255,1.004-4.281,2.881-5.431c1.857-1.166,4.338-1.632,7.475-1.639
		c2.945,0.002,5.381,0.529,7.258,1.749c1.886,1.214,3.071,3.17,3.435,5.496l0.262,1.586h-5.688l-0.243-1.059
		c-0.259-1.088-0.633-1.505-1.009-1.698c-0.67-0.368-2.043-0.657-4.015-0.648c-1.891-0.007-3.227,0.26-3.9,0.609
		c-1.106,0.621-0.878,1.599-0.104,1.941c0.542,0.265,1.862,0.627,3.763,0.942c3.916,0.663,6.547,1.325,8.2,2.234
		c2.139,1.159,3.372,3.32,3.328,5.774c0.005,1.283-0.356,2.512-1.081,3.528c-0.721,1.017-1.761,1.802-3.011,2.386
		c-1.9,0.914-4.115,1.342-6.605,1.342C43.228,31.528,40.708,31.034,38.651,29.938"/>
	<path clip-path="url(#SVGID_10_)" fill="#FFFFFF" d="M78.201,22.384c0.015-2.635-0.938-4.994-2.787-6.713
		c-1.858-1.755-4.383-2.597-7.29-2.587c-2.91-0.009-5.442,0.832-7.317,2.58c-1.871,1.717-2.84,4.081-2.823,6.72
		c-0.016,2.634,0.937,4.993,2.789,6.702c1.858,1.747,4.384,2.579,7.289,2.568c0.015,0.002,0.03,0.002,0.046,0.002
		c2.887,0,5.399-0.834,7.265-2.564C77.246,27.386,78.217,25.023,78.201,22.384 M71.384,25.208c-0.723,0.68-1.728,1.073-3.292,1.082
		c-1.568-0.01-2.559-0.4-3.273-1.076c-0.731-0.722-1.083-1.546-1.098-2.83c0.014-1.312,0.37-2.152,1.089-2.864
		c0.694-0.668,1.69-1.064,3.282-1.071c1.615,0.007,2.628,0.404,3.318,1.062l0.001,0.002c0.71,0.692,1.069,1.53,1.083,2.871
		C72.479,23.666,72.126,24.487,71.384,25.208"/>
</g>
<rect x="79.723" y="7.378" fill="#FFFFFF" width="5.708" height="23.937"/>
<g>
	<defs>
		<rect id="SVGID_11_" width="181" height="56.842"/>
	</defs>
	<clipPath id="SVGID_12_">
		<use xlink:href="#SVGID_11_"  overflow="visible"/>
	</clipPath>
	<path clip-path="url(#SVGID_12_)" fill="#FFFFFF" d="M121.094,31.314v-11.44c-0.017-0.831-0.204-1.136-0.512-1.401
		c-0.318-0.266-1.021-0.524-2.215-0.521c-1.317,0.01-2.098,0.335-2.654,0.879c-0.577,0.585-0.867,1.267-0.88,2.373v10.11h-5.708
		V7.39h5.708v5.669c1.074-0.362,2.251-0.535,3.503-0.534c2.188-0.003,4.129,0.508,5.675,1.605c1.816,1.221,2.821,3.232,2.789,5.464
		v11.72H121.094z"/>
	<path clip-path="url(#SVGID_12_)" fill="#FFFFFF" d="M150.446,31.313V13.178h5.706v1.57c1.325-1.325,3.238-1.662,5.24-1.665h1.365
		v5.365h-1.365c-2.457,0.006-3.702,0.624-4.24,1.426l-0.008,0.009c-0.623,0.886-0.99,2.123-0.992,3.833v7.597H150.446z"/>
</g>
<polygon fill="#FFFFFF" points="167.679,31.314 167.678,18.58 164.579,18.58 164.579,13.151 167.679,13.149 167.679,8.935 
	173.385,8.935 173.385,13.151 176.519,13.151 176.519,18.58 173.385,18.58 173.385,31.314 "/>
<g>
	<defs>
		<rect id="SVGID_13_" width="181" height="56.842"/>
	</defs>
	<clipPath id="SVGID_14_">
		<use xlink:href="#SVGID_13_"  overflow="visible"/>
	</clipPath>
	<path clip-path="url(#SVGID_14_)" fill="#FFFFFF" d="M100.921,13.145v1.542c-1.463-1.08-3.249-1.611-5.249-1.603
		c-2.538-0.009-4.747,0.832-6.383,2.58c-1.633,1.717-2.477,4.081-2.463,6.72c-0.013,2.634,0.818,4.993,2.434,6.702
		c1.621,1.747,3.823,2.579,6.358,2.568c0.013,0.002,0.026,0.002,0.041,0.002c2.002,0,3.792-0.535,5.262-1.622v1.312h5.707v-18.2
		H100.921z M99.645,25.208c-0.688,0.68-1.643,1.073-3.127,1.082c-1.491-0.01-2.434-0.4-3.111-1.076
		c-0.695-0.722-1.029-1.546-1.045-2.83c0.015-1.312,0.353-2.152,1.035-2.864c0.659-0.668,1.607-1.064,3.121-1.071
		c1.533,0.007,2.495,0.404,3.151,1.062l0.001,0.002c0.676,0.692,1.017,1.53,1.028,2.871
		C100.685,23.666,100.349,24.487,99.645,25.208"/>
	<path clip-path="url(#SVGID_14_)" fill="#FFFFFF" d="M142.241,13.145v1.542c-1.465-1.08-3.249-1.611-5.25-1.603
		c-2.538-0.009-4.747,0.832-6.383,2.58c-1.632,1.717-2.478,4.081-2.462,6.72c-0.014,2.634,0.816,4.993,2.434,6.702
		c1.621,1.747,3.822,2.579,6.357,2.568c0.013,0.002,0.027,0.002,0.041,0.002c2.001,0,3.791-0.535,5.263-1.622v1.312h5.707v-18.2
		H142.241z M140.965,25.208c-0.688,0.68-1.643,1.073-3.128,1.082c-1.491-0.01-2.434-0.4-3.111-1.076
		c-0.693-0.722-1.03-1.546-1.043-2.83c0.012-1.312,0.352-2.152,1.033-2.864c0.66-0.668,1.607-1.064,3.121-1.071
		c1.534,0.007,2.496,0.404,3.152,1.062l0.001,0.002c0.675,0.692,1.016,1.53,1.028,2.871
		C142.006,23.666,141.669,24.487,140.965,25.208"/>
</g>
</svg>
