<?xml version="1.0" encoding="utf-8"?>
<!-- Generator: Adobe Illustrator 19.2.1, SVG Export Plug-In . SVG Version: 6.00 Build 0)  -->
<svg version="1.1" id="Layer_1" xmlns="http://www.w3.org/2000/svg" xmlns:xlink="http://www.w3.org/1999/xlink" x="0px" y="0px"
	 viewBox="0 0 30.3 30" style="enable-background:new 0 0 30.3 30;" xml:space="preserve">
<style type="text/css">
	.st0{fill:#FFCB05;}
</style>
<path class="st0" d="M30.3,14.1c0-0.1,0-0.3-0.1-0.4c0-0.3-0.1-0.6-0.1-0.8c-0.4-3.1-1.8-5.9-4-8.2c-2.3-2.4-5.3-4-8.5-4.5
	c-0.3-0.1-0.6-0.1-1-0.1c-0.1,0-0.3,0-0.4-0.1h-2h0l-0.4,0c-0.3,0-0.5,0.1-0.8,0.1C7.3,0.9,2.6,4.8,0.8,10.2
	c-0.4,1.2-0.7,2.4-0.8,3.7c0,0,0,0.1,0,0.1c0,0,0,0,0,0.1l0,0v2v0c0,0.1,0,0.2,0.1,0.4c0,0.3,0.1,0.5,0.1,0.8
	c0.5,3.5,2.3,6.7,4.9,9.1c0.1,0.1,0.3,0.2,0.5,0.2c0,0,0.1,0,0.1,0c0.3,0,0.6-0.2,0.7-0.5c0.1-0.3,0.1-0.7-0.2-1
	c-0.2-0.2-0.4-0.4-0.6-0.6c-0.5-0.5-1-1-1.4-1.6C2,20,1.1,16.3,1.8,12.7c0.5-3,2-5.7,4.3-7.7c2.4-2.2,5.6-3.4,8.9-3.4
	c0.8,0,1.7,0.1,2.5,0.2c7.3,1.3,12.2,8.2,11,15.5c0,0,0,0,0,0c-0.5,3-2.1,5.7-4.4,7.7c-2.6,2.3-6,3.5-9.4,3.3
	c-0.8,0-1.5-0.1-2.2-0.4c-0.5-0.2-0.8-0.7-0.7-1.2c0.2-0.8,0.5-1.5,0.9-2.2l0.2,0.1c0.4,0.2,0.8,0.2,1.2,0.2c1.1,0,2.1-0.7,2.6-1.7
	c0.2-0.3,0.3-0.7,0.5-1.1c0.7-1.4,0.1-3.1-1.3-3.7c-0.1,0-0.1-0.1-0.2-0.1l-0.2-0.1c-0.4-0.2-0.9-0.4-1.3-0.6
	c-0.2-0.1-0.4-0.3-0.4-0.5v0c0-0.4-0.1-0.8,0-1.1c0.2-1.4,0.7-2.7,1.5-3.9c0.4-0.6,0.8-1.1,1.4-1.5c0.2-0.2,0.5-0.2,0.8-0.1
	c0.4,0.2,0.9,0.4,1.3,0.6l0.3,0.1c0.4,0.2,0.8,0.2,1.2,0.2c1.1,0,2.2-0.7,2.6-1.7c0.2-0.4,0.4-0.8,0.5-1.2c0.6-1.4,0-3.1-1.4-3.7
	c0,0,0,0-0.1,0c-0.2-0.1-0.4-0.2-0.6-0.3c-0.3-0.1-0.6-0.3-1-0.4c-0.5-0.2-1-0.4-1.5-0.4c-0.4,0-0.9,0.1-1.3,0.2
	c-1.4,0.5-2.6,1.4-3.5,2.5c-2,2.2-3.4,4.8-4.3,7.6c-0.7,2.1-1,4.3-0.7,6.5c0.1,1,0.5,1.9,1.2,2.7c0.3,0.3,0.6,0.5,0.9,0.7
	c0.1,0.1,0.2,0.1,0.3,0.2c0,0,0,0,0,0.1c-0.1,0.2-0.2,0.4-0.3,0.6c-0.2,0.5-0.4,1-0.6,1.5c-0.3,0.9-0.1,2,0.6,2.7
	c0.5,0.5,1.2,0.9,1.9,1c0.3,0.1,0.6,0.1,0.9,0.2l0.4,0.1h2h0l0.4,0c0.3,0,0.6-0.1,0.8-0.1c6.5-0.9,11.7-6,12.7-12.5
	c0.1-0.3,0.1-0.7,0.1-1c0-0.2,0-0.3,0.1-0.5L30.3,14.1L30.3,14.1z M20,9.7c-0.2,0-0.4,0-0.5-0.1l-0.2-0.1c-0.5-0.2-0.9-0.4-1.4-0.6
	c-0.3-0.2-0.6-0.2-1-0.2c-0.5,0-0.9,0.1-1.3,0.4c-0.8,0.5-1.5,1.3-2,2.1c-1,1.5-1.6,3.1-1.7,4.9c-0.1,0.6,0,1.3,0.3,1.8
	c0.2,0.5,0.6,0.8,1,1c0.6,0.3,1.2,0.5,1.7,0.8c0.6,0.2,1,0.9,0.7,1.6c0,0,0,0.1,0,0.1c-0.2,0.4-0.3,0.8-0.5,1.1
	C15,23,14.5,23.3,14,23.3c-0.2,0-0.4,0-0.6-0.1c-0.2-0.1-0.4-0.2-0.6-0.3c-0.3-0.1-0.7-0.3-1-0.4c-0.5-0.2-0.9-0.6-1.1-1.1
	c-0.3-0.9-0.5-1.8-0.5-2.7c0.1-1.8,0.5-3.7,1.2-5.4c0.8-2.2,2-4.2,3.6-5.9c0.7-0.8,1.4-1.4,2.3-1.8c0.4-0.2,0.8-0.3,1.3-0.3
	c0.4,0,0.7,0.1,1.1,0.3c0.3,0.2,0.6,0.3,0.9,0.4C20.7,6,20.9,6.1,21,6.1c0.6,0.2,0.9,0.9,0.7,1.5c0,0,0,0.1,0,0.1
	c-0.2,0.4-0.3,0.8-0.5,1.2C21,9.5,20.5,9.8,20,9.7L20,9.7z"/>
</svg>
