<svg xmlns="http://www.w3.org/2000/svg" width="14" height="21" viewBox="0 0 14 21">
  <defs>
    <style>
      .cls-1 {
        fill: #fff;
        fill-rule: evenodd;
      }
    </style>
  </defs>
  <path class="cls-1" d="M934.772,36.279a7.063,7.063,0,0,0-6.8-5.279c-0.223,0-.447.011-0.668,0.034a7.066,7.066,0,0,0-6.315,6.759,6.351,6.351,0,0,0,.752,3.376c1.563,2.917,3.175,5.869,4.734,8.725l0.849,1.554a0.868,0.868,0,0,0,.661.553,0.879,0.879,0,0,0,.667-0.562l1.1-2.027c1.473-2.7,3-5.5,4.468-8.258A6.652,6.652,0,0,0,934.772,36.279Zm-0.958,1.514a5.538,5.538,0,0,1-.468,2.5c-1.292,2.526-2.622,4.973-4.03,7.562q-0.653,1.2-1.312,2.419c-0.064-.108-0.118-0.2-0.169-0.3q-2.5-4.6-4.989-9.208a5.78,5.78,0,0,1,.628-6.486,5.9,5.9,0,0,1,4.506-2.139A5.856,5.856,0,0,1,933.814,37.793ZM927.991,34.9a3.314,3.314,0,1,0,3.33,3.314A3.326,3.326,0,0,0,927.991,34.9Zm0,5.526a2.212,2.212,0,1,1,2.222-2.211A2.22,2.22,0,0,1,927.991,40.426Z" transform="translate(-921 -31)"/>
</svg>
