<?xml version="1.0" encoding="utf-8"?>
<!-- Generator: Adobe Illustrator 19.2.1, SVG Export Plug-In . SVG Version: 6.00 Build 0)  -->
<svg version="1.1" id="Layer_1" xmlns="http://www.w3.org/2000/svg" xmlns:xlink="http://www.w3.org/1999/xlink" x="0px" y="0px"
	 viewBox="0 0 31 31" style="enable-background:new 0 0 31 31;" xml:space="preserve">
<style type="text/css">
	.st0{fill:#FFC20E;}
</style>
<path id="Yellow_Arrow_Quote_" class="st0" d="M10.9,22l2.5,2.5l9.1-9.1L20,12.9L10.9,22z M10.9,8.7l9.1,9.1l2.5-2.5l-9.1-9.1
	L10.9,8.7z M15.5,31C6.9,31,0,24.1,0,15.5S6.9,0,15.5,0S31,6.9,31,15.5C31,24.1,24.1,31,15.5,31z M15.5,1.7
	C7.9,1.7,1.7,7.9,1.7,15.5s6.2,13.8,13.8,13.8c7.6,0,13.8-6.2,13.8-13.8c0,0,0,0,0,0C29.2,7.9,23.1,1.8,15.5,1.7z"/>
</svg>
