<?xml version="1.0" encoding="utf-8"?>
<!-- Generator: Adobe Illustrator 19.2.1, SVG Export Plug-In . SVG Version: 6.00 Build 0)  -->
<svg version="1.1" xmlns="http://www.w3.org/2000/svg" xmlns:xlink="http://www.w3.org/1999/xlink" x="0px" y="0px"
	 viewBox="0 0 210 45" style="enable-background:new 0 0 210 45;" xml:space="preserve">
<style type="text/css">
	.st0{fill:#000;}
</style>
<path class="st0" d="M15.4,20.9L15.4,20.9l-0.2,0C15,21,9.7,24.7,9.5,29.5c-0.2,3.2,2.1,6,5.3,6.5c0.3,0,0.5,0,0.8,0
	c3.3,0.1,6-2.5,6.1-5.8C22,25,15.7,21.1,15.4,20.9z M4.1,19.1c-2.3,2.8-3.7,6.2-4,9.7v0.1c0,0,0,0.1,0,0.1l0,0
	c-0.6,9.2,6,15.7,15,16c8.1,0.5,15.6-5.2,16.3-13.5c0.5-5.8-1.6-9.4-5.6-13.4c-3.4-3.3-11.1-8.8-12-9.5c-0.9-0.8-0.9-2.2-0.1-3.1
	c0.7-0.8,1.9-1,2.8-0.3l7,5.6v-6l-4.6-3.4c-3.3-2.2-7.8-1.3-10,2c-1.9,2.8-1.5,6.6,0.8,9c1.8,1.8,3.9,3.4,6,4.9
	c4.4,3,9.7,7.5,9.1,13.6c-0.5,5.1-5.1,8.8-10.2,8.3c0,0-0.1,0-0.1,0c-5-0.4-8.8-4.7-8.4-9.8c0-0.1,0-0.2,0-0.3
	c0.4-4.2,3.5-7.6,6.6-10.1L8.3,15C6.8,16.2,5.4,17.6,4.1,19.1L4.1,19.1L4.1,19.1z M0.1,28.8L0.1,28.8z M207.1,10.9h0.5
	c0.4,0,0.7,0,0.7-0.5c0-0.4-0.3-0.4-0.6-0.4h-0.6L207.1,10.9L207.1,10.9L207.1,10.9z M206.6,9.6h1.1c0.4-0.1,0.9,0.2,1,0.6
	c0,0.1,0,0.2,0,0.2c0,0.4-0.3,0.8-0.7,0.8c0,0,0,0-0.1,0l0.8,1.3h-0.5l-0.8-1.2h-0.5v1.2h-0.4L206.6,9.6L206.6,9.6L206.6,9.6z
	 M207.6,13.1c1.1,0,2.1-0.8,2.2-2c0-1.1-0.8-2.1-2-2.2s-2.1,0.8-2.2,2c0,0,0,0,0,0.1C205.5,12.1,206.4,13,207.6,13.1
	C207.5,13.1,207.5,13.1,207.6,13.1L207.6,13.1z M207.6,8.6c1.3,0,2.4,1.1,2.4,2.4c0,1.3-1.1,2.4-2.4,2.4c-1.3,0-2.4-1.1-2.4-2.4
	c0,0,0,0,0,0C205.1,9.7,206.2,8.6,207.6,8.6C207.5,8.6,207.6,8.6,207.6,8.6L207.6,8.6L207.6,8.6z M44.6,34.7c-3-1.6-4.9-4.7-4.8-8.2
	l0,0v-1.5l6.6-0.2v1.6c-0.1,1.1,0.4,2.1,1.4,2.7l0,0c1.7,0.9,3.6,1.2,5.5,1.1l0,0c1.5,0.1,3-0.2,4.4-0.7l0,0
	c0.4-0.2,0.8-0.4,1.1-0.7l0,0c0.4-0.4,0.5-1.1,0.1-1.5c-0.1-0.1-0.1-0.1-0.2-0.2c-0.5-0.3-1.1-0.6-1.7-0.7l0,0
	c-0.6-0.2-2.3-0.5-4.9-1.1l0,0c-2.3-0.4-4.6-1-6.8-1.9l0,0c-1.3-0.6-2.5-1.5-3.4-2.7l0,0c-0.8-1.2-1.2-2.6-1.2-4l0,0
	c-0.1-2.5,1.2-4.9,3.3-6.3l0,0c2.1-1.4,5-1.9,8.6-1.9l0,0c2.9-0.2,5.8,0.6,8.4,2l0,0c2.2,1.5,3.6,3.8,4,6.4l0,0l0.3,1.8h-6.6
	l-0.3-1.2c-0.1-0.8-0.5-1.5-1.2-2l0,0c-1.5-0.6-3.1-0.9-4.6-0.8l0,0c-1.5-0.1-3.1,0.1-4.5,0.7l0,0c-1.3,0.7-1,1.9-0.1,2.3l0,0
	c1.4,0.5,2.9,0.9,4.3,1.1l0,0c4.5,0.8,7.6,1.5,9.5,2.6l0,0c2.4,1.3,3.9,3.9,3.8,6.7l0,0c0,1.5-0.4,2.9-1.2,4.1l0,0
	c-0.9,1.2-2.1,2.2-3.5,2.8l0,0c-2.4,1.1-5,1.6-7.6,1.6l0,0C50.3,36.7,47.3,36.1,44.6,34.7L44.6,34.7L44.6,34.7z M82.4,29.3
	c-1,0.9-2.4,1.4-3.8,1.3c-1.4,0.1-2.7-0.3-3.8-1.2c-0.9-0.9-1.3-2.1-1.3-3.3c-0.1-1.2,0.4-2.4,1.3-3.3c1-0.9,2.4-1.4,3.8-1.2
	c1.4-0.1,2.8,0.3,3.8,1.2l0,0c0.9,0.9,1.3,2.1,1.2,3.3C83.8,27.2,83.3,28.4,82.4,29.3L82.4,29.3L82.4,29.3z M90.3,26
	c0.1-2.9-1.1-5.8-3.2-7.8c-2.3-2.1-5.3-3.1-8.4-3c-3.1-0.1-6.1,0.9-8.4,3c-2.2,2-3.3,4.9-3.3,7.8c-0.1,2.9,1.1,5.8,3.2,7.8
	c2.3,2.1,5.3,3.1,8.4,3c0,0,0,0,0.1,0c3.1,0.1,6.1-0.9,8.4-3l0,0C89.2,31.8,90.4,28.9,90.3,26L90.3,26L90.3,26z M92,36.3V8.6h6.6
	v27.8H92z M139.8,36.3V23.1c0.1-0.6-0.1-1.2-0.6-1.6l0,0c-0.8-0.5-1.7-0.7-2.6-0.6l0,0c-1.1-0.1-2.2,0.3-3.1,1l0,0
	c-0.7,0.7-1.1,1.7-1,2.8l0,0v11.7H126V8.6h6.6v6.6c1.3-0.4,2.7-0.6,4-0.6l0,0c2.3-0.1,4.6,0.6,6.6,1.9l0,0c2.1,1.4,3.3,3.8,3.2,6.3
	l0,0v13.6L139.8,36.3L139.8,36.3z M173.7,36.3v-21h6.6v1.8c1.5-1.5,3.7-1.9,6-1.9h1.6v6.2h-1.6c-2.8,0-4.3,0.7-4.9,1.7l0,0l0,0
	c-0.8,1.3-1.2,2.9-1.1,4.4l0,0v8.8L173.7,36.3L173.7,36.3z M193.6,36.3V21.6H190v-6.3h3.6v-4.9h6.6v4.9h3.6v6.3h-3.6v14.8
	L193.6,36.3L193.6,36.3z M115,29.3c-2.1,1.7-5.1,1.7-7.2,0c-0.8-0.9-1.3-2.1-1.2-3.3c-0.1-1.2,0.4-2.4,1.2-3.3
	c1-0.9,2.3-1.3,3.6-1.2c1.3-0.1,2.6,0.3,3.6,1.2l0,0c0.8,0.9,1.3,2.1,1.2,3.3C116.3,27.2,115.9,28.4,115,29.3L115,29.3L115,29.3z
	 M116.5,15.3V17c-1.8-1.3-3.9-1.9-6.1-1.9c-2.8-0.1-5.5,1-7.4,3c-1.9,2.1-2.9,4.9-2.8,7.8c-0.1,2.9,0.9,5.6,2.8,7.8
	c1.9,2,4.6,3.1,7.3,3c0,0,0,0,0,0c2.2,0.1,4.3-0.6,6.1-1.9v1.5h6.6V15.3H116.5L116.5,15.3z M162.7,29.3c-1,0.9-2.3,1.4-3.6,1.3
	c-1.3,0.1-2.6-0.4-3.6-1.2c-0.8-0.9-1.3-2.1-1.2-3.3c-0.1-1.2,0.4-2.4,1.2-3.3c1-0.9,2.3-1.3,3.6-1.2c1.3-0.1,2.6,0.3,3.6,1.2l0,0
	c0.8,0.9,1.3,2.1,1.2,3.3C164,27.2,163.6,28.4,162.7,29.3L162.7,29.3L162.7,29.3z M164.2,15.3V17c-1.8-1.3-3.9-1.9-6.1-1.9
	c-2.8-0.1-5.5,1-7.4,3c-1.9,2.1-2.9,4.9-2.8,7.8c-0.1,2.9,0.9,5.6,2.8,7.8c1.9,2,4.6,3.1,7.3,3c0,0,0,0,0,0c2.2,0.1,4.3-0.6,6.1-1.9
	v1.5h6.6V15.3H164.2z"/>
</svg>
